<svg xmlns="http://www.w3.org/2000/svg" xmlns:xlink="http://www.w3.org/1999/xlink" width="300" zoomAndPan="magnify" viewBox="0 0 224.87999 225" height="300" preserveAspectRatio="xMidYMid meet" version="1.2"><defs><clipPath id="aaaa6e2523"><path d="M 38 36 L 192 36 L 192 184.996094 L 38 184.996094 Z M 38 36 "/></clipPath></defs><g id="a7892475fe"><g clip-rule="nonzero" clip-path="url(#aaaa6e2523)"><path style=" stroke:none;fill-rule:evenodd;fill:#ffffff;fill-opacity:1;" d="M 105.4375 66.871094 C 103.59375 63.441406 102.390625 58.925781 102.003906 55.382812 C 101.546875 51.1875 102.097656 46.949219 104.21875 43.253906 C 106.164062 39.863281 109.195312 37.433594 113.046875 36.613281 C 116.675781 35.835938 120.617188 36.605469 123.609375 38.832031 C 126.574219 41.035156 128.082031 44.1875 128.863281 47.714844 C 129.609375 51.085938 129.707031 54.636719 129.113281 58.039062 C 128.65625 60.640625 127.75 63.457031 126.4375 65.9375 C 130.53125 66.5625 134.605469 67.660156 138.390625 69.265625 C 141.066406 70.398438 143.527344 71.773438 145.800781 73.410156 C 147.074219 69.894531 149.4375 65.804688 151.40625 62.886719 C 154.636719 58.101562 158.972656 53.621094 165.183594 53.582031 C 172.539062 53.535156 179.042969 60.175781 178.304688 67.601562 C 177.722656 73.441406 173.011719 77.792969 168.441406 80.921875 C 165.515625 82.921875 162.273438 84.660156 158.980469 85.984375 C 158.375 86.226562 157.777344 86.441406 157.179688 86.621094 C 159.011719 90 160.40625 93.628906 161.285156 97.320312 C 161.539062 98.386719 161.753906 99.46875 161.925781 100.558594 C 165.011719 98.996094 168.464844 97.921875 171.855469 97.621094 C 177.222656 97.148438 183.679688 98.460938 187.628906 102.308594 C 192.277344 106.835938 192.613281 113.964844 188.96875 119.1875 C 185.894531 123.601562 180.886719 125.378906 175.644531 125.082031 C 171.785156 124.863281 167.332031 123.535156 163.875 121.816406 C 163.015625 121.390625 162.164062 120.90625 161.34375 120.371094 C 160.042969 126.597656 157.703125 132.457031 154.109375 137.757812 C 153.816406 138.191406 153.515625 138.617188 153.210938 139.039062 C 153.378906 139.089844 153.550781 139.136719 153.722656 139.191406 C 158.15625 140.527344 163.046875 142.566406 166.6875 145.472656 C 171.03125 148.945312 174.539062 154.570312 174.058594 160.316406 C 173.464844 167.386719 167.214844 171.460938 160.445312 170.621094 C 155.84375 170.050781 151.527344 167.414062 148.246094 164.234375 C 145.4375 161.511719 142.761719 157.828125 140.964844 154.367188 C 140.445312 153.363281 140 152.332031 139.671875 151.285156 C 139.324219 151.484375 138.96875 151.683594 138.613281 151.875 C 135.21875 153.703125 131.5625 155.070312 127.796875 156.019531 C 129.199219 158.578125 130.367188 161.503906 131.054688 164.25 C 132.042969 168.175781 132.253906 172.632812 130.695312 176.441406 C 128.625 181.511719 123.601562 184.742188 118.085938 183.902344 C 113.453125 183.199219 109.953125 179.847656 107.945312 175.777344 C 106.214844 172.261719 105.441406 168.011719 105.644531 164.105469 C 105.761719 161.84375 106.21875 159.472656 106.933594 157.238281 C 103.53125 156.769531 100.179688 155.945312 96.902344 154.734375 C 95.570312 154.238281 94.261719 153.683594 92.984375 153.070312 C 92.230469 156.921875 90.738281 161.144531 88.9375 164.621094 C 86.769531 168.796875 83.457031 173.164062 79.203125 175.367188 C 74.09375 178.015625 68.09375 177.242188 63.957031 173.199219 C 60.480469 169.804688 59.214844 164.980469 59.835938 160.246094 C 60.464844 155.472656 62.898438 150.980469 66.332031 147.636719 C 69.300781 144.742188 73.414062 142.320312 77.253906 140.792969 C 77.445312 140.71875 77.640625 140.644531 77.832031 140.570312 C 74.597656 136.023438 72.359375 130.613281 71.050781 125.066406 C 71.011719 125.097656 70.96875 125.128906 70.925781 125.160156 C 67.46875 127.734375 63.011719 130.324219 58.921875 131.714844 C 53.429688 133.585938 46.96875 133.730469 42.375 129.652344 C 37.183594 125.039062 36.871094 117.105469 41.117188 111.75 C 44.386719 107.625 49.910156 105.5 54.980469 104.675781 C 58.851562 104.046875 63.359375 104.070312 67.171875 105.046875 C 68.214844 105.3125 69.222656 105.667969 70.167969 106.117188 C 70.726562 102.433594 71.734375 98.820312 73.210938 95.296875 C 73.832031 93.824219 74.535156 92.355469 75.316406 90.90625 C 71.429688 90.941406 66.878906 89.90625 63.566406 88.601562 C 59.640625 87.054688 56.144531 84.597656 53.859375 80.996094 C 51.761719 77.699219 51.023438 73.886719 52.085938 70.09375 C 53.089844 66.515625 55.59375 63.394531 58.964844 61.777344 C 62.296875 60.175781 65.789062 60.308594 69.269531 61.257812 C 72.601562 62.164062 75.792969 63.730469 78.527344 65.839844 C 81.589844 68.203125 84.605469 71.640625 86.121094 75.203125 C 86.316406 75.65625 86.480469 76.109375 86.621094 76.558594 C 90.347656 73.324219 94.375 71.007812 98.992188 69.089844 C 101.167969 68.1875 103.269531 67.449219 105.4375 66.871094 Z M 105.4375 66.871094 "/></g><path style=" stroke:none;fill-rule:evenodd;fill:#fcda9f;fill-opacity:1;" d="M 102.230469 76.894531 C 98.972656 78.25 95.101562 80.15625 91.210938 83.796875 C 87.320312 87.441406 83.417969 92.820312 81.003906 98.570312 C 78.589844 104.316406 77.667969 110.433594 78.273438 116.988281 C 78.878906 123.542969 81.011719 130.53125 84.824219 135.816406 C 88.636719 141.105469 94.128906 144.691406 99.839844 146.808594 C 105.550781 148.925781 111.484375 149.570312 117.464844 149.140625 C 123.445312 148.710938 129.46875 147.203125 134.601562 144.4375 C 139.738281 141.667969 143.980469 137.640625 147.117188 133.015625 C 150.25 128.390625 152.28125 123.164062 153.324219 117.320312 C 154.371094 111.480469 154.433594 105.023438 153.0625 99.277344 C 151.695312 93.527344 148.898438 88.484375 145.734375 84.785156 C 142.570312 81.082031 139.039062 78.71875 135.089844 77.042969 C 131.140625 75.367188 126.769531 74.378906 122.648438 73.976562 C 118.523438 73.574219 114.652344 73.761719 111.394531 74.253906 C 108.132812 74.746094 105.492188 75.542969 102.230469 76.894531 Z M 102.230469 76.894531 "/><path style=" stroke:none;fill-rule:evenodd;fill:#fcda9f;fill-opacity:1;" d="M 153.480469 77.097656 C 154.0625 75.082031 156.214844 70.871094 158.414062 67.613281 C 160.609375 64.351562 162.855469 62.046875 165.238281 62.03125 C 167.621094 62.015625 170.140625 64.292969 169.894531 66.765625 C 169.648438 69.242188 166.636719 71.917969 163.671875 73.945312 C 160.703125 75.972656 157.78125 77.355469 155.832031 78.140625 C 153.878906 78.925781 152.894531 79.109375 153.480469 77.097656 Z M 153.480469 77.097656 "/><path style=" stroke:none;fill-rule:evenodd;fill:#fcda9f;fill-opacity:1;" d="M 164.46875 108.804688 C 166.050781 107.851562 169.125 106.347656 172.601562 106.039062 C 176.074219 105.730469 179.949219 106.625 181.730469 108.359375 C 183.515625 110.097656 183.207031 112.679688 182.039062 114.355469 C 180.871094 116.03125 178.839844 116.800781 176.121094 116.644531 C 173.398438 116.492188 169.988281 115.414062 167.636719 114.246094 C 165.285156 113.078125 163.992188 111.820312 163.394531 110.988281 C 162.792969 110.160156 162.886719 109.757812 164.46875 108.804688 Z M 164.46875 108.804688 "/><path style=" stroke:none;fill-rule:evenodd;fill:#fcda9f;fill-opacity:1;" d="M 151.28125 147.28125 C 153.878906 148.0625 158.429688 149.691406 161.410156 152.074219 C 164.390625 154.457031 165.804688 157.59375 165.636719 159.609375 C 165.46875 161.621094 163.714844 162.511719 161.488281 162.234375 C 159.257812 161.960938 156.554688 160.515625 154.125 158.164062 C 151.695312 155.8125 149.542969 152.550781 148.46875 150.476562 C 147.390625 148.402344 147.390625 147.511719 147.714844 147.035156 C 148.039062 146.558594 148.683594 146.496094 151.28125 147.28125 Z M 151.28125 147.28125 "/><path style=" stroke:none;fill-rule:evenodd;fill:#fcda9f;fill-opacity:1;" d="M 115.695312 157.917969 C 115.082031 159.316406 114.222656 161.867188 114.082031 164.542969 C 113.945312 167.214844 114.527344 170.015625 115.527344 172.042969 C 116.527344 174.070312 117.941406 175.332031 119.355469 175.546875 C 120.769531 175.761719 122.183594 174.933594 122.875 173.242188 C 123.566406 171.550781 123.535156 169 122.859375 166.308594 C 122.183594 163.621094 120.863281 160.792969 119.785156 159.054688 C 118.710938 157.316406 117.878906 156.671875 117.28125 156.472656 C 116.679688 156.273438 116.3125 156.519531 115.695312 157.917969 Z M 115.695312 157.917969 "/><path style=" stroke:none;fill-rule:evenodd;fill:#fcda9f;fill-opacity:1;" d="M 80.375 148.648438 C 78.128906 149.539062 74.625 151.351562 72.226562 153.691406 C 69.828125 156.027344 68.539062 158.886719 68.214844 161.34375 C 67.894531 163.804688 68.539062 165.863281 69.859375 167.15625 C 71.183594 168.445312 73.179688 168.96875 75.316406 167.863281 C 77.453125 166.753906 79.730469 164.019531 81.433594 160.730469 C 83.140625 157.441406 84.277344 153.597656 84.707031 151.351562 C 85.140625 149.109375 84.863281 148.464844 84.230469 148.125 C 83.601562 147.789062 82.617188 147.757812 80.375 148.648438 Z M 80.375 148.648438 "/><path style=" stroke:none;fill-rule:evenodd;fill:#fcda9f;fill-opacity:1;" d="M 65.082031 113.234375 C 63.035156 112.710938 59.746094 112.464844 56.335938 113.019531 C 52.921875 113.570312 49.386719 114.925781 47.742188 117 C 46.097656 119.074219 46.34375 121.871094 47.988281 123.332031 C 49.632812 124.792969 52.675781 124.914062 56.195312 123.714844 C 59.714844 122.515625 63.710938 119.996094 65.878906 118.382812 C 68.046875 116.769531 68.382812 116.0625 68.152344 115.308594 C 67.921875 114.554688 67.125 113.757812 65.078125 113.234375 Z M 65.082031 113.234375 "/><path style=" stroke:none;fill-rule:evenodd;fill:#fcda9f;fill-opacity:1;" d="M 67.046875 69.410156 C 68.90625 69.917969 71.214844 70.871094 73.363281 72.53125 C 75.515625 74.191406 77.515625 76.558594 78.34375 78.511719 C 79.175781 80.460938 78.835938 82 76.46875 82.367188 C 74.101562 82.738281 69.707031 81.9375 66.664062 80.738281 C 63.621094 79.539062 61.929688 77.941406 60.992188 76.464844 C 60.054688 74.988281 59.867188 73.636719 60.222656 72.378906 C 60.574219 71.117188 61.46875 69.949219 62.621094 69.394531 C 63.773438 68.839844 65.1875 68.902344 67.046875 69.410156 Z M 67.046875 69.410156 "/><path style=" stroke:none;fill-rule:evenodd;fill:#fcda9f;fill-opacity:1;" d="M 120.613281 49.539062 C 121.027344 51.421875 121.257812 53.902344 120.789062 56.582031 C 120.320312 59.257812 119.152344 62.128906 117.8125 63.773438 C 116.46875 65.414062 114.953125 65.832031 113.523438 63.90625 C 112.097656 61.980469 110.757812 57.71875 110.40625 54.46875 C 110.050781 51.214844 110.679688 48.976562 111.546875 47.457031 C 112.417969 45.941406 113.53125 45.148438 114.808594 44.875 C 116.089844 44.601562 117.539062 44.847656 118.566406 45.613281 C 119.589844 46.375 120.195312 47.65625 120.609375 49.539062 Z M 120.613281 49.539062 "/><path style=" stroke:none;fill-rule:nonzero;fill:#859fd2;fill-opacity:1;" d="M 108.523438 101.523438 C 108.523438 101.933594 108.445312 102.328125 108.289062 102.707031 C 108.132812 103.085938 107.910156 103.421875 107.621094 103.710938 C 107.332031 104 106.996094 104.222656 106.617188 104.378906 C 106.238281 104.535156 105.84375 104.613281 105.433594 104.613281 C 105.027344 104.613281 104.632812 104.535156 104.253906 104.378906 C 103.875 104.222656 103.539062 104 103.25 103.710938 C 102.960938 103.421875 102.738281 103.085938 102.582031 102.707031 C 102.421875 102.328125 102.34375 101.933594 102.34375 101.523438 C 102.34375 101.113281 102.421875 100.722656 102.582031 100.34375 C 102.738281 99.964844 102.960938 99.628906 103.25 99.339844 C 103.539062 99.050781 103.875 98.828125 104.253906 98.671875 C 104.632812 98.511719 105.027344 98.433594 105.433594 98.433594 C 105.84375 98.433594 106.238281 98.511719 106.617188 98.671875 C 106.996094 98.828125 107.332031 99.050781 107.621094 99.339844 C 107.910156 99.628906 108.132812 99.964844 108.289062 100.34375 C 108.445312 100.722656 108.523438 101.113281 108.523438 101.523438 Z M 108.523438 101.523438 "/><path style=" stroke:none;fill-rule:nonzero;fill:#859fd2;fill-opacity:1;" d="M 132.5 101.523438 C 132.5 101.933594 132.421875 102.328125 132.265625 102.707031 C 132.109375 103.085938 131.882812 103.421875 131.59375 103.710938 C 131.304688 104 130.972656 104.222656 130.59375 104.378906 C 130.214844 104.535156 129.820312 104.613281 129.410156 104.613281 C 129 104.613281 128.605469 104.535156 128.226562 104.378906 C 127.847656 104.222656 127.515625 104 127.226562 103.710938 C 126.933594 103.421875 126.710938 103.085938 126.554688 102.707031 C 126.398438 102.328125 126.320312 101.933594 126.320312 101.523438 C 126.320312 101.113281 126.398438 100.722656 126.554688 100.34375 C 126.710938 99.964844 126.933594 99.628906 127.226562 99.339844 C 127.515625 99.050781 127.847656 98.828125 128.226562 98.671875 C 128.605469 98.511719 129 98.433594 129.410156 98.433594 C 129.820312 98.433594 130.214844 98.511719 130.59375 98.671875 C 130.972656 98.828125 131.304688 99.050781 131.59375 99.339844 C 131.882812 99.628906 132.109375 99.964844 132.265625 100.34375 C 132.421875 100.722656 132.5 101.113281 132.5 101.523438 Z M 132.5 101.523438 "/><path style=" stroke:none;fill-rule:nonzero;fill:#859fd2;fill-opacity:1;" d="M 101.039062 114.761719 C 100.835938 114.179688 101.140625 113.542969 101.726562 113.339844 C 102.308594 113.136719 102.945312 113.445312 103.148438 114.027344 C 104.203125 117.066406 106.164062 119.605469 108.664062 121.382812 C 111.160156 123.160156 114.203125 124.175781 117.421875 124.175781 C 120.644531 124.175781 123.683594 123.160156 126.179688 121.382812 C 128.679688 119.605469 130.640625 117.066406 131.699219 114.027344 C 131.902344 113.445312 132.539062 113.136719 133.121094 113.339844 C 133.703125 113.542969 134.011719 114.179688 133.808594 114.761719 C 132.597656 118.25 130.347656 121.164062 127.476562 123.203125 C 124.601562 125.246094 121.113281 126.417969 117.421875 126.417969 C 113.734375 126.417969 110.242188 125.246094 107.367188 123.203125 C 104.5 121.164062 102.25 118.25 101.039062 114.761719 Z M 101.039062 114.761719 "/></g></svg>